<svg width="420" height="62" viewBox="0 0 420 62" fill="none" xmlns="http://www.w3.org/2000/svg">
<path d="M286 40.3481C286 52.1769 278.274 59.6233 266 59.6233C253.726 59.6233 246 52.1769 246 40.3481C246 27.6545 260.338 10.5182 264.735 5.56153C264.891 5.38548 265.085 5.24414 265.304 5.14721C265.522 5.05029 265.76 5.00007 266.001 5C266.241 5 266.479 5.05019 266.698 5.14712C266.916 5.24405 267.11 5.38542 267.267 5.56153C271.663 10.5182 286 27.6545 286 40.3481Z" stroke="#54BE8B" stroke-width="3" stroke-miterlimit="10" stroke-linecap="square"/>
<path d="M276 37C276 39.556 274.946 42.0073 273.071 43.8147C271.196 45.6221 268.652 46.6375 266 46.6376" stroke="#54BE8B" stroke-width="3" stroke-linecap="round" stroke-linejoin="round"/>
<path d="M19.875 46.8672L9.23438 22.1172L8.34375 19.75L8.50781 28.2344V49H4.71094V14.3359H9.96094L22.0312 41.9453L33.9844 14.3359H39.0938V49H35.1562V28.1406L35.3203 19.8438L34.4531 22.2109L23.8359 46.8672H19.875ZM61.3828 28.0469C60.2422 26.6719 58.6719 25.9844 56.6719 25.9844C54.6719 25.9844 53.0391 26.6953 51.7734 28.1172C50.5078 29.5234 49.7656 31.4531 49.5469 33.9062H63.1172C63.1172 31.3594 62.5391 29.4062 61.3828 28.0469ZM57.4453 49.5391C53.7109 49.5391 50.7656 48.3516 48.6094 45.9766C46.4688 43.6016 45.3984 40.3516 45.3984 36.2266C45.3984 32.2422 46.4375 29.0156 48.5156 26.5469C50.5938 24.0625 53.3281 22.7969 56.7188 22.75C59.9062 22.75 62.4297 23.8438 64.2891 26.0312C66.1641 28.2031 67.1016 31.1094 67.1016 34.75C67.1016 34.9375 67.0938 35.2812 67.0781 35.7812C67.0781 36.2812 67.0781 36.6406 67.0781 36.8594H49.4297C49.4766 39.7812 50.2266 42.0625 51.6797 43.7031C53.1484 45.3281 55.1172 46.1406 57.5859 46.1406C60.3047 46.1406 63.0312 45.4219 65.7656 43.9844L66.375 47.1484C63.7656 48.7422 60.7891 49.5391 57.4453 49.5391ZM80.7422 49.4688C78.2109 49.4688 76.4141 48.8516 75.3516 47.6172C74.2891 46.3828 73.7266 44.3906 73.6641 41.6406V26.1953H69.8438L70.0078 23.6172L73.6406 23.2891L74.9766 17.4062L77.5547 17.3125V23.2891H84.7031V26.1953H77.5547V40.9375C77.5547 42.8906 77.8516 44.2656 78.4453 45.0625C79.0391 45.8594 80.0547 46.2578 81.4922 46.2578C82.0078 46.2578 83.125 46.1328 84.8438 45.8828L85.0078 48.9766C83.1484 49.3047 81.7266 49.4688 80.7422 49.4688ZM103.992 28.0469C102.852 26.6719 101.281 25.9844 99.2812 25.9844C97.2812 25.9844 95.6484 26.6953 94.3828 28.1172C93.1172 29.5234 92.375 31.4531 92.1562 33.9062H105.727C105.727 31.3594 105.148 29.4062 103.992 28.0469ZM100.055 49.5391C96.3203 49.5391 93.375 48.3516 91.2188 45.9766C89.0781 43.6016 88.0078 40.3516 88.0078 36.2266C88.0078 32.2422 89.0469 29.0156 91.125 26.5469C93.2031 24.0625 95.9375 22.7969 99.3281 22.75C102.516 22.75 105.039 23.8438 106.898 26.0312C108.773 28.2031 109.711 31.1094 109.711 34.75C109.711 34.9375 109.703 35.2812 109.688 35.7812C109.688 36.2812 109.688 36.6406 109.688 36.8594H92.0391C92.0859 39.7812 92.8359 42.0625 94.2891 43.7031C95.7578 45.3281 97.7266 46.1406 100.195 46.1406C102.914 46.1406 105.641 45.4219 108.375 43.9844L108.984 47.1484C106.375 48.7422 103.398 49.5391 100.055 49.5391ZM126.68 23.0547C127.383 23.0547 128.023 23.1016 128.602 23.1953L128.461 26.8047C127.742 26.6797 127.117 26.6172 126.586 26.6172C124.398 26.6172 122.617 27.3828 121.242 28.9141C119.883 30.4297 119.203 32.3125 119.203 34.5625V49H115.289C115.273 33.2188 115.266 24.6484 115.266 23.2891H118.523L118.898 27.9062C119.789 26.4531 120.922 25.2812 122.297 24.3906C123.672 23.5 125.133 23.0547 126.68 23.0547ZM144.328 26.0078C141.844 26.0078 139.938 26.8672 138.609 28.5859C137.297 30.2891 136.641 32.7969 136.641 36.1094C136.641 42.8906 139.195 46.2812 144.305 46.2812C145.57 46.2812 146.68 46.0234 147.633 45.5078C148.602 44.9766 149.359 44.2422 149.906 43.3047C150.469 42.3516 150.883 41.2812 151.148 40.0938C151.43 38.9062 151.57 37.5859 151.57 36.1328C151.57 34.1641 151.336 32.4453 150.867 30.9766C150.414 29.5078 149.633 28.3125 148.523 27.3906C147.414 26.4688 146.016 26.0078 144.328 26.0078ZM144.727 22.75C147.008 22.75 148.977 23.3281 150.633 24.4844C152.289 25.6406 153.531 27.2109 154.359 29.1953C155.188 31.1797 155.602 33.4531 155.602 36.0156C155.602 38.6719 155.188 41.0078 154.359 43.0234C153.547 45.0391 152.305 46.6328 150.633 47.8047C148.977 48.9609 146.992 49.5391 144.68 49.5391C142.977 49.5391 141.422 49.1719 140.016 48.4375C138.609 47.7031 137.438 46.7031 136.5 45.4375L136.102 49H132.75V13.3047L136.664 13.0703V21.5781C136.664 23.6719 136.633 25.4688 136.57 26.9688C137.477 25.6719 138.648 24.6484 140.086 23.8984C141.539 23.1328 143.086 22.75 144.727 22.75ZM163.992 36.2031C163.992 39.25 164.664 41.6953 166.008 43.5391C167.367 45.3672 169.344 46.2812 171.938 46.2812C174.5 46.2812 176.43 45.3672 177.727 43.5391C179.039 41.7109 179.695 39.25 179.695 36.1562C179.695 33.0156 179.047 30.5469 177.75 28.75C176.469 26.9375 174.508 26.0312 171.867 26.0312C169.305 26.0312 167.352 26.9531 166.008 28.7969C164.664 30.6406 163.992 33.1094 163.992 36.2031ZM183.75 36.1328C183.75 40.1172 182.688 43.3516 180.562 45.8359C178.438 48.3047 175.5 49.5391 171.75 49.5391C168.141 49.5391 165.266 48.2891 163.125 45.7891C161 43.2891 159.938 40.0781 159.938 36.1562C159.938 32.1562 161.008 28.9219 163.148 26.4531C165.289 23.9844 168.227 22.75 171.961 22.75C175.633 22.75 178.516 23.9922 180.609 26.4766C182.703 28.9453 183.75 32.1641 183.75 36.1328ZM196.219 49.4688C193.719 49.4688 191.945 48.7969 190.898 47.4531C189.867 46.1094 189.352 43.7734 189.352 40.4453V13.3047L193.242 13.0703V38.8984C193.242 39.9609 193.25 40.8125 193.266 41.4531C193.297 42.0938 193.359 42.7266 193.453 43.3516C193.547 43.9609 193.672 44.4219 193.828 44.7344C193.984 45.0469 194.211 45.3359 194.508 45.6016C194.805 45.8516 195.156 46.0234 195.562 46.1172C195.984 46.1953 196.5 46.2344 197.109 46.2344C197.609 46.2344 198.594 46.1406 200.062 45.9531L200.273 49.0703C198.664 49.3359 197.312 49.4688 196.219 49.4688ZM207.281 23.2891V49H203.344V23.2891H207.281ZM207.281 13.9375V18.5781H203.344V13.9375H207.281ZM225.539 49.5391C221.758 49.5391 218.797 48.3125 216.656 45.8594C214.531 43.4062 213.469 40.1953 213.469 36.2266C213.484 32.2266 214.57 28.9844 216.727 26.5C218.898 24 221.867 22.75 225.633 22.75C226.961 22.75 228.242 22.9141 229.477 23.2422C230.727 23.5703 231.711 24 232.43 24.5312L231.352 27.5781C229.523 26.5938 227.594 26.1016 225.562 26.1016C223.078 26.1016 221.109 27.0078 219.656 28.8203C218.219 30.6328 217.5 33.1094 217.5 36.25C217.5 39.3125 218.211 41.7422 219.633 43.5391C221.07 45.3203 223.055 46.2109 225.586 46.2109C227.602 46.2109 229.664 45.6641 231.773 44.5703L232.266 47.6875C230.562 48.9219 228.32 49.5391 225.539 49.5391Z" fill="#54BE8B"/>
<path d="M306.258 32.5V45.6719H313.5C316.438 45.6719 318.641 45.1328 320.109 44.0547C321.578 42.9609 322.312 41.2656 322.312 38.9688C322.312 36.5781 321.516 34.9062 319.922 33.9531C318.344 32.9844 315.875 32.5 312.516 32.5H306.258ZM306.258 29.2422H313.688C316.109 29.2422 317.938 28.8203 319.172 27.9766C320.406 27.1328 321.023 25.6328 321.023 23.4766C321.023 21.3047 320.281 19.8125 318.797 19C317.328 18.1719 315.039 17.7578 311.93 17.7578H306.258V29.2422ZM302.203 14.3359H312.141C316.594 14.3359 319.891 15.0156 322.031 16.375C324.188 17.7344 325.266 19.8984 325.266 22.8672C325.266 23.3047 325.234 23.7422 325.172 24.1797C325.125 24.6016 324.984 25.1484 324.75 25.8203C324.531 26.4922 324.227 27.1094 323.836 27.6719C323.445 28.2188 322.867 28.7734 322.102 29.3359C321.352 29.8828 320.469 30.3203 319.453 30.6484C321.781 31.0859 323.547 32.0703 324.75 33.6016C325.953 35.1328 326.555 36.9766 326.555 39.1328C326.555 42.2734 325.523 44.7031 323.461 46.4219C321.414 48.1406 318.359 49 314.297 49H302.203V14.3359ZM338.531 49.4688C336.031 49.4688 334.258 48.7969 333.211 47.4531C332.18 46.1094 331.664 43.7734 331.664 40.4453V13.3047L335.555 13.0703V38.8984C335.555 39.9609 335.562 40.8125 335.578 41.4531C335.609 42.0938 335.672 42.7266 335.766 43.3516C335.859 43.9609 335.984 44.4219 336.141 44.7344C336.297 45.0469 336.523 45.3359 336.82 45.6016C337.117 45.8516 337.469 46.0234 337.875 46.1172C338.297 46.1953 338.812 46.2344 339.422 46.2344C339.922 46.2344 340.906 46.1406 342.375 45.9531L342.586 49.0703C340.977 49.3359 339.625 49.4688 338.531 49.4688ZM347.836 36.2031C347.836 39.25 348.508 41.6953 349.852 43.5391C351.211 45.3672 353.188 46.2812 355.781 46.2812C358.344 46.2812 360.273 45.3672 361.57 43.5391C362.883 41.7109 363.539 39.25 363.539 36.1562C363.539 33.0156 362.891 30.5469 361.594 28.75C360.312 26.9375 358.352 26.0312 355.711 26.0312C353.148 26.0312 351.195 26.9531 349.852 28.7969C348.508 30.6406 347.836 33.1094 347.836 36.2031ZM367.594 36.1328C367.594 40.1172 366.531 43.3516 364.406 45.8359C362.281 48.3047 359.344 49.5391 355.594 49.5391C351.984 49.5391 349.109 48.2891 346.969 45.7891C344.844 43.2891 343.781 40.0781 343.781 36.1562C343.781 32.1562 344.852 28.9219 346.992 26.4531C349.133 23.9844 352.07 22.75 355.805 22.75C359.477 22.75 362.359 23.9922 364.453 26.4766C366.547 28.9453 367.594 32.1641 367.594 36.1328ZM383.133 45.6484C384.461 45.6484 385.625 45.4141 386.625 44.9453C387.625 44.4766 388.406 43.8281 388.969 43C389.531 42.1719 389.945 41.25 390.211 40.2344C390.492 39.2188 390.633 38.1094 390.633 36.9062V35.0078C390.633 33.7578 390.492 32.6094 390.211 31.5625C389.93 30.5 389.492 29.5547 388.898 28.7266C388.32 27.8828 387.539 27.2266 386.555 26.7578C385.586 26.2891 384.453 26.0547 383.156 26.0547C382.078 26.0547 381.094 26.2578 380.203 26.6641C379.328 27.0703 378.602 27.6094 378.023 28.2812C377.461 28.9375 376.977 29.7109 376.57 30.6016C376.18 31.4766 375.898 32.3672 375.727 33.2734C375.555 34.1797 375.469 35.0938 375.469 36.0156C375.469 36.9219 375.562 37.8203 375.75 38.7109C375.938 39.6016 376.234 40.4688 376.641 41.3125C377.047 42.1562 377.539 42.8984 378.117 43.5391C378.695 44.1641 379.414 44.6719 380.273 45.0625C381.148 45.4531 382.102 45.6484 383.133 45.6484ZM377.109 60.7656L376.758 57.2266H381.539C382.867 57.2266 384.023 57.1328 385.008 56.9453C385.992 56.7578 386.812 56.4453 387.469 56.0078C388.125 55.5859 388.656 55.1094 389.062 54.5781C389.469 54.0625 389.773 53.3828 389.977 52.5391C390.195 51.7109 390.336 50.8828 390.398 50.0547C390.477 49.2422 390.516 48.2422 390.516 47.0547V44.7812C389.578 46.125 388.492 47.1641 387.258 47.8984C386.023 48.6172 384.453 48.9766 382.547 48.9766C381.078 48.9766 379.719 48.7266 378.469 48.2266C377.234 47.7109 376.188 47.0312 375.328 46.1875C374.484 45.3438 373.758 44.3672 373.148 43.2578C372.555 42.1484 372.117 41 371.836 39.8125C371.57 38.625 371.438 37.4297 371.438 36.2266C371.438 34.3516 371.664 32.6172 372.117 31.0234C372.586 29.4297 373.273 28.0078 374.18 26.7578C375.086 25.5078 376.273 24.5312 377.742 23.8281C379.227 23.1094 380.922 22.75 382.828 22.75C384.516 22.75 385.984 23.0781 387.234 23.7344C388.5 24.375 389.633 25.3672 390.633 26.7109V23.2891H394.453V47.1484C394.453 48.2422 394.422 49.1953 394.359 50.0078C394.312 50.8359 394.18 51.75 393.961 52.75C393.758 53.75 393.477 54.6094 393.117 55.3281C392.758 56.0469 392.25 56.7656 391.594 57.4844C390.953 58.2188 390.18 58.8047 389.273 59.2422C388.383 59.6953 387.273 60.0625 385.945 60.3438C384.617 60.625 383.117 60.7656 381.445 60.7656H377.109ZM408.656 49.5391C406.906 49.5391 405.289 49.3516 403.805 48.9766C402.336 48.6016 401.141 48.1172 400.219 47.5234L400.711 44.2188C403.32 45.6094 405.883 46.3047 408.398 46.3047C412.211 46.3047 414.172 44.9609 414.281 42.2734C414.281 41.1328 413.875 40.2344 413.062 39.5781C412.25 38.9219 410.656 38.1875 408.281 37.375L406.336 36.6953C404.086 35.9453 402.477 35.0156 401.508 33.9062C400.555 32.7969 400.07 31.4141 400.055 29.7578C400.055 27.7422 400.859 26.0703 402.469 24.7422C404.094 23.4141 406.312 22.75 409.125 22.75C412.031 22.75 414.68 23.3125 417.07 24.4375L415.922 27.4375C413.5 26.4375 411.234 25.9375 409.125 25.9375C407.484 25.9375 406.195 26.2656 405.258 26.9219C404.336 27.5625 403.875 28.4688 403.875 29.6406C403.875 30.6406 404.211 31.4062 404.883 31.9375C405.555 32.4688 406.898 33.0781 408.914 33.7656C409.43 33.9531 410.078 34.1719 410.859 34.4219C413.453 35.2656 415.289 36.2656 416.367 37.4219C417.445 38.5625 417.984 40.1094 417.984 42.0625C417.953 44.4375 417.102 46.2812 415.43 47.5938C413.758 48.8906 411.5 49.5391 408.656 49.5391Z" fill="#54BE8B"/>
</svg>
